<svg class="_desktop769" viewBox="0 0 1440 1053" fill="none" preserveAspectRatio="none">
    <path d="M0.000125885 73.9998H1440V473H0.000125885V73.9998Z" />
    <path fill-rule="evenodd" clip-rule="evenodd"
        d="M1464.69 74.0305L1382.19 57.4296C1299.77 41.8405 1134.85 9.65046 972.404 12.8712C810.031 17.1038 650.204 57.7588 487.831 61.9913C325.458 66.2238 160.469 33.0221 78.0446 17.4329L-4.4502 0.832031L7.7838 175.863L88.7228 170.205C169.662 164.548 331.54 153.233 493.418 141.919C655.296 130.604 817.174 119.289 979.052 107.975C1140.93 96.6599 1302.81 85.3452 1383.75 79.6879L1464.69 74.0305Z" />
    <path
        d="M1440 417H0.000125885V904H8.32344L60.0001 922.626C120 944.252 240 987.504 360 987.504C411.429 987.504 462.857 979.56 514.286 971.615C582.857 961.023 651.429 950.431 720 958.669C776.471 965.454 832.941 985.01 889.412 1004.57C952.941 1026.57 1016.47 1048.57 1080 1052.38C1200 1059.59 1320 1001.92 1380 973.087L1440 944.252V417Z" />
</svg>