<svg class="_mobile768" viewBox="0 0 375 1025" fill="none" preserveAspectRatio="none">
    <path
        d="M354.167 39.2775L375 45.0001V997.098L359.375 1004.5C343.75 1011.89 312.5 1026.69 281.25 1024.84C264.706 1023.86 248.162 1018.22 231.618 1012.57C216.912 1007.56 202.206 1002.54 187.5 1000.8C169.643 998.683 151.786 1001.4 133.929 1004.12C120.536 1006.16 107.143 1008.2 93.75 1008.2C62.5 1008.2 31.25 997.098 15.625 991.549L0 986L1.43051e-05 0L20.8333 5.72255C21.8543 5.99023 22.9252 6.27228 24.0437 6.56685C45.7503 12.2836 85.3752 22.7193 125 24.4509C145.833 25.3613 166.667 23.9307 187.5 22.5C208.333 21.0694 229.167 19.6388 250 20.5492C290.539 22.5738 331.078 33.2163 352.43 38.8217C353.024 38.9777 353.603 39.1297 354.167 39.2775Z" />
</svg>