<svg class="_mobile768" viewBox="0 0 375 1288" fill="none" preserveAspectRatio="none">
    <path fill-rule="evenodd" clip-rule="evenodd"
        d="M0 37.6021L20.9375 41.2186C41.5625 44.8351 83.4375 52.0681 125 44.8351C166.562 37.6021 208.438 15.9032 250 10.4785C291.562 5.05374 333.438 15.9032 354.062 21.3279L375 26.7527V81H354.062C333.438 81 291.562 81 250 81C208.438 81 166.562 81 125 81C83.4375 81 41.5625 81 20.9375 81H0V37.6021Z" />
    <path fill-rule="evenodd" clip-rule="evenodd"
        d="M375 80H0V1240L20.8333 1245.72L22.5712 1246.18C43.9232 1251.78 84.4616 1262.43 125 1264.45C145.833 1265.36 166.667 1263.93 187.5 1262.5C208.333 1261.07 229.167 1259.64 250 1260.55C289.625 1262.28 329.249 1272.72 350.956 1278.43C352.075 1278.73 353.146 1279.01 354.167 1279.28L375 1285V1240V80Z" />
</svg>