<svg class="_mobile768" viewBox="0 0 375 1005" fill="none" preserveAspectRatio="none">
    <path d="M0 77H375V949H0V77Z" />
    <path
        d="M15.625 9.40476L0 0V77V85H375V77L360 72C353.528 69.6626 344.268 66.59 333.419 62.9901C318.076 57.8992 299.556 51.7539 281.25 45.1429C250 33.8571 218.75 22.5714 187.5 24.4524C173.828 25.2753 160.156 28.6184 146.484 31.9615C128.906 36.2598 111.328 40.558 93.75 39.5C62.5 37.619 31.25 18.8095 15.625 9.40476Z" />
    <path fill-rule="evenodd" clip-rule="evenodd"
        d="M0 966.482L20.8333 973C41.6667 979.519 83.3333 992.259 125 994.333C166.667 996.407 208.333 987.815 250 987.815C291.667 987.815 333.333 996.407 354.167 1000.85L375 1005V941H354.167C333.333 941 291.667 941 250 941C208.333 941 166.667 941 125 941C83.3333 941 41.6667 941 20.8333 941H0V966.482Z" />
</svg>