<svg class="_dektop769" viewBox="0 0 1440 1240" fill="none" preserveAspectRatio="none">
    <path d="M0 304H1440V1032H0V304Z" />
    <path
        d="M60 36.1905L0 0V304V312H1440V304L1080 173.714C960 130.286 840 86.8571 720 94.0952C667.5 97.2619 615 110.126 562.5 122.991C495 139.531 427.5 156.071 360 152C240 144.762 120 72.381 60 36.1905Z" />
    <path fill-rule="evenodd" clip-rule="evenodd"
        d="M0 1110L80 1132C160 1154 320 1197 480 1204C640 1211 800 1182 960 1182C1120 1182 1280 1211 1360 1226L1440 1240V1024H1360C1280 1024 1120 1024 960 1024C800 1024 640 1024 480 1024C320 1024 160 1024 80 1024H0V1110Z" />
</svg>