<svg class="_mobile768" width="375" height="721" viewBox="0 0 375 721" fill="none"
preserveAspectRatio="none">
<path fill-rule="evenodd" clip-rule="evenodd"
    d="M354.167 39.2775L375 45.0001L354.167 45.0001L250 45.0001L125 45L20.8333 45L375 45.0001V682V693.098L359.375 700.496C343.75 707.894 312.5 722.691 281.25 720.842C264.706 719.862 248.162 714.218 231.618 708.573C216.912 703.555 202.206 698.538 187.5 696.797C169.643 694.683 151.786 697.401 133.929 700.119C120.536 702.157 107.143 704.195 93.75 704.195C62.5 704.195 31.25 693.098 15.625 687.549L0 682L1.03711e-05 45L1.43051e-05 0L20.8333 5.72255C21.8543 5.99023 22.9252 6.27228 24.0437 6.56685C45.7503 12.2836 85.3752 22.7193 125 24.4509C145.833 25.3613 166.667 23.9307 187.5 22.5C208.333 21.0694 229.167 19.6388 250 20.5492C290.539 22.5738 331.078 33.2163 352.43 38.8217C353.024 38.9777 353.603 39.1297 354.167 39.2775Z"
    />
</svg>