<svg class="_desktop769" viewBox="0 0 1440 625" fill="none" preserveAspectRatio="none">
    <path d="M5.34058e-05 74H1440V473H5.34058e-05V74Z" />
    <path fill-rule="evenodd" clip-rule="evenodd"
        d="M1464.69 74.0305L1382.19 57.4296C1299.77 41.8405 1134.85 9.65046 972.404 12.8712C810.031 17.1038 650.204 57.7588 487.831 61.9913C325.458 66.2238 160.469 33.0221 78.0446 17.4329L-4.4502 0.832031L7.7838 175.863L88.7228 170.205C169.662 164.548 331.54 153.233 493.418 141.919C655.296 130.604 817.174 119.289 979.052 107.975C1140.93 96.6599 1302.81 85.3452 1383.75 79.6879L1464.69 74.0305Z"
        />
    <path
        d="M1440 417H5.34058e-05V473L60.0001 494.626C120 516.252 240 559.504 360 559.504C411.429 559.504 462.857 551.56 514.286 543.616C582.857 533.023 651.429 522.431 720 530.669C776.471 537.454 832.941 557.01 889.412 576.565C952.941 598.566 1016.47 620.566 1080 624.382C1200 631.591 1320 573.921 1380 545.087L1440 516.252V473V417Z"
        />
</svg>