<svg viewBox="0 0 1440 783" fill="none" preserveAspectRatio="none">
    <path fill-rule="evenodd" clip-rule="evenodd"
        d="M0.000105381 113.217L80.4001 127.532C159.6 141.847 320.4 170.478 480 141.847C639.6 113.217 800.4 27.3252 960 5.85228C1119.6 -15.6206 1280.4 27.3252 1359.6 48.7981L1440 70.271V285H1359.6C1280.4 285 1119.6 285 960 285C800.4 285 639.6 285 480 285C320.4 285 159.6 285 80.4001 285H0.000105381V113.217Z" />
    <path d="M0.000105381 245H1440V709H0.000105381V245Z" />
    <path fill-rule="evenodd" clip-rule="evenodd"
        d="M-4.4502 708.962L78.0446 725.563C160.469 741.152 325.387 773.342 487.831 770.121C650.204 765.889 810.031 725.233 972.404 721.001C1134.78 716.768 1299.77 749.97 1382.19 765.559L1464.69 782.16L1452.45 607.13L1371.51 612.787C1290.57 618.444 1128.7 629.759 966.818 641.074C804.94 652.388 643.062 663.703 481.184 675.018C319.306 686.332 157.428 697.647 76.4888 703.304L-4.4502 708.962Z" />
</svg>