<svg class="_mobile768" viewBox="0 0 375 851" fill="none" preserveAspectRatio="none">
    <path fill-rule="evenodd" clip-rule="evenodd"
        d="M0 28.6021L20.9375 32.2186C41.5625 35.8351 83.4375 43.0681 125 35.8351C166.562 28.6021 208.438 6.9032 250 1.47847C291.562 -3.94626 333.438 6.9032 354.062 12.3279L375 17.7527V72H354.062C333.438 72 291.562 72 250 72C208.438 72 166.562 72 125 72C83.4375 72 41.5625 72 20.9375 72H0V28.6021Z" />
    <path d="M0 71H375V807H0V71Z" />
    <path fill-rule="evenodd" clip-rule="evenodd"
        d="M0 806L20.8333 811.723C41.6667 817.185 83.3333 828.37 125 830.451C166.667 832.272 208.333 824.728 250 826.549C291.667 828.37 333.333 839.815 354.167 845.277L375 851V806H354.167C333.333 806 291.667 806 250 806C208.333 806 166.667 806 125 806C83.3333 806 41.6667 806 20.8333 806H0Z" />
</svg>