<svg class="_desktop769" viewBox="0 0 1440 669" fill="none" preserveAspectRatio="none">
    <path fill-rule="evenodd" clip-rule="evenodd"
        d="M0 113.217L80.4 127.532C159.6 141.847 320.4 170.478 480 141.847C639.6 113.217 800.4 27.3252 960 5.85228C1119.6 -15.6206 1280.4 27.3252 1359.6 48.7981L1440 70.271V285H1359.6C1280.4 285 1119.6 285 960 285C800.4 285 639.6 285 480 285C320.4 285 159.6 285 80.4 285H0V113.217Z" />
    <rect y="245" width="1440" height="354" />
    <path fill-rule="evenodd" clip-rule="evenodd"
        d="M-4.4503 596.962L78.0445 613.563C160.469 629.152 325.387 661.342 487.831 658.121C650.204 653.889 810.031 613.233 972.404 609.001C1134.78 604.768 1299.77 637.97 1382.19 653.559L1464.69 670.16L1452.45 495.13L1371.51 500.787C1290.57 506.444 1128.7 517.759 966.818 529.074C804.94 540.388 643.062 551.703 481.184 563.018C319.306 574.332 157.428 585.647 76.4887 591.304L-4.4503 596.962Z" />
</svg>