<svg width="112" height="120" viewBox="0 0 112 120" fill="none" xmlns="http://www.w3.org/2000/svg">
<path d="M26.4182 87.9354C24.0195 85.5104 24.0195 81.5787 26.4182 79.1537L35.4397 70.0331C37.8384 67.6079 41.7274 67.6079 44.126 70.0331C46.5249 72.4581 46.5249 76.3898 44.126 78.8147L35.1044 87.9354C32.7058 90.3604 28.8168 90.3604 26.4182 87.9354Z" stroke="#FCC602" stroke-width="3.2" stroke-miterlimit="10" stroke-linecap="round" stroke-linejoin="round"/>
<path d="M66.5314 93.3999L63.3995 90.2336" stroke="#FCC602" stroke-width="3.2" stroke-miterlimit="10" stroke-linecap="round" stroke-linejoin="round"/>
<path d="M76.8586 86.2764L64.8068 74.0922" stroke="#FCC602" stroke-width="3.2" stroke-miterlimit="10" stroke-linecap="round" stroke-linejoin="round"/>
<path d="M85.5452 77.4946L73.1603 64.9737" stroke="#FCC602" stroke-width="3.2" stroke-miterlimit="10" stroke-linecap="round" stroke-linejoin="round"/>
<path d="M56.802 101.127L57.845 102.181C60.2437 104.606 64.1327 104.606 66.5315 102.181C68.9302 99.7563 68.9302 95.8246 66.5315 93.3996L68.1723 95.0584C70.571 97.4834 74.4599 97.4834 76.8586 95.0584C79.2574 92.6334 79.2574 88.7015 76.8586 86.2765L78.4996 87.9356C80.8982 90.3605 84.7872 90.3605 87.1859 87.9356C89.5845 85.5104 89.5845 81.5787 87.1859 79.1537L85.5453 77.4951C87.9439 79.9199 91.8327 79.9197 94.2313 77.4949V77.4947C96.63 75.0697 96.63 71.138 94.2313 68.713L90.5717 65.0132" stroke="#FCC602" stroke-width="3.2" stroke-miterlimit="10" stroke-linecap="round" stroke-linejoin="round"/>
<path d="M28.059 77.4946C25.6603 79.9198 21.7714 79.9198 19.3727 77.4946C16.9739 75.0696 16.9739 71.1379 19.3727 68.7129L26.7533 61.2511C29.152 58.8261 33.0409 58.8261 35.4396 61.2511C37.8384 63.6761 37.8384 67.608 35.4396 70.0329" stroke="#FCC602" stroke-width="3.2" stroke-miterlimit="10" stroke-linecap="round" stroke-linejoin="round"/>
<path d="M44.1261 78.8143C46.5248 76.3893 50.4137 76.3893 52.8124 78.8143H52.8126C55.2112 81.2394 55.2112 85.1711 52.8126 87.5961L45.4318 95.058C43.0331 97.483 39.1442 97.483 36.7455 95.058V95.0578C34.3467 92.6328 34.3467 88.7011 36.7455 86.2761" stroke="#FCC602" stroke-width="3.2" stroke-miterlimit="10" stroke-linecap="round" stroke-linejoin="round"/>
<path d="M52.8126 87.5966C55.2112 85.1716 59.1002 85.1716 61.4988 87.5966C63.8975 90.0216 63.8975 93.9532 61.4988 96.3782L55.7591 102.181C53.3604 104.606 49.4712 104.606 47.0726 102.181C44.6739 99.7561 44.6739 95.8244 47.0726 93.3994" stroke="#FCC602" stroke-width="3.2" stroke-miterlimit="10" stroke-linecap="round" stroke-linejoin="round"/>
<path d="M18.3089 62.1808L22.0714 65.9846" stroke="#FCC602" stroke-width="3.2" stroke-miterlimit="10" stroke-linecap="round" stroke-linejoin="round"/>
<path d="M55.8924 29.889L55.8413 29.8371L55.7901 29.889L49.2412 23.2681C39.6561 13.5776 24.1154 13.5776 14.5302 23.2681H14.53C5.19011 32.7108 4.95122 47.8699 13.8131 57.605" stroke="#FCC602" stroke-width="3.2" stroke-miterlimit="10" stroke-linecap="round" stroke-linejoin="round"/>
<path d="M94.2222 20.7332C84.6237 13.6672 71.1016 14.5121 62.4413 23.2675L55.8923 29.8884L55.8412 29.8365L55.7901 29.8884" stroke="#FCC602" stroke-width="3.2" stroke-miterlimit="10" stroke-linecap="round" stroke-linejoin="round"/>
<path d="M84.1804 58.7719L90.5719 65.0129L97.1524 58.3601C106.132 49.2813 106.699 34.9182 98.8533 25.1722" stroke="#FCC602" stroke-width="3.2" stroke-miterlimit="10" stroke-linecap="round" stroke-linejoin="round"/>
<path d="M55.3737 30.3431L42.5711 43.2863C41.4278 44.4422 41.4278 46.3163 42.5711 47.4721C46.2251 51.1663 52.1495 51.1663 55.8037 47.4721L64.0602 39.1247L79.5911 54.2905" stroke="#FCC602" stroke-width="3.2" stroke-miterlimit="10" stroke-linecap="round" stroke-linejoin="round"/>
</svg>
