<svg width="120" height="120" viewBox="0 0 120 120" fill="none" xmlns="http://www.w3.org/2000/svg">
<path d="M108 28.8789C108 28.8684 107.998 28.8579 107.998 28.8472C107.997 28.8054 107.994 28.7641 107.99 28.7232C107.988 28.7082 107.985 28.6932 107.983 28.6782C107.977 28.6405 107.97 28.6034 107.961 28.567C107.958 28.5526 107.954 28.5384 107.95 28.5239C107.94 28.4844 107.927 28.4455 107.913 28.4073C107.91 28.4 107.909 28.3925 107.906 28.3854L104.091 18.62C103.707 17.636 102.775 17 101.719 17H94.7729C94.0158 17 93.4021 17.6137 93.4021 18.3708C93.4021 19.1279 94.0158 19.7416 94.7729 19.7416H101.586L104.622 27.5133H75.9204L74.1221 19.7416H84.722C85.4791 19.7416 86.0928 19.1279 86.0928 18.3708C86.0928 17.6137 85.4791 17 84.722 17H72.3978H58.5853H29.2643C28.2075 17 27.2764 17.636 26.8919 18.6204L23.0772 28.3854C23.0744 28.3927 23.0729 28.4002 23.0701 28.4073C23.0558 28.4454 23.0434 28.4842 23.0326 28.5239C23.0286 28.5384 23.0249 28.5526 23.0215 28.567C23.0129 28.6036 23.0059 28.6407 23.0003 28.6782C22.9981 28.6932 22.9952 28.7082 22.9934 28.7232C22.9887 28.7641 22.9861 28.8054 22.9849 28.8472C22.9847 28.8577 22.9834 28.8682 22.9832 28.8789C22.9832 28.8805 22.9831 28.8822 22.9831 28.8839V49.0232C22.9831 49.7804 23.5967 50.3941 24.3539 50.3941C25.111 50.3941 25.7247 49.7804 25.7247 49.0232V30.2549H54.7819V51.0914C54.7819 51.9062 55.2619 52.6487 56.0049 52.9831C56.277 53.1055 56.5667 53.1653 56.8545 53.1653C57.3525 53.1653 57.8451 52.9864 58.2313 52.6441L65.4915 46.2121L72.7517 52.6439C73.3612 53.1844 74.2353 53.3174 74.9784 52.9831C75.7213 52.6486 76.2013 51.9062 76.2013 51.0914V30.2549H105.258V91.7404C105.258 92.724 104.458 93.5244 103.474 93.5244H78.3393C78.3393 93.5088 78.3375 93.4933 78.3373 93.4777C78.3358 93.3547 78.3313 93.2319 78.3208 93.11C80.6808 93.7357 83.2025 92.5228 84.1483 90.2034C84.6457 88.9834 84.6384 87.6427 84.1274 86.4285C84.0793 86.3141 84.0262 86.2031 83.9703 86.0938C83.96 86.0737 83.9501 86.0535 83.9398 86.0336C83.8848 85.9294 83.8263 85.8276 83.7646 85.7284C83.7526 85.7091 83.7403 85.6903 83.7281 85.6712C83.6628 85.5694 83.5951 85.4694 83.5229 85.3732C83.5216 85.3714 83.5201 85.3697 83.5188 85.368C83.4472 85.2729 83.3714 85.1814 83.2933 85.092C83.279 85.0757 83.2649 85.0592 83.2505 85.0429C83.1731 84.9566 83.0926 84.8732 83.0094 84.7927C82.9931 84.777 82.9766 84.7618 82.9601 84.7464C82.8729 84.6645 82.7836 84.5848 82.6906 84.5096C82.6874 84.5072 82.6843 84.5047 82.6811 84.5023C82.5896 84.4286 82.4945 84.3589 82.3976 84.2917C82.3801 84.2796 82.3629 84.2672 82.3451 84.2552C82.2481 84.1899 82.1488 84.1282 82.0468 84.0696C82.0383 84.0647 82.0306 84.0591 82.022 84.0542C82.6014 83.5528 83.0587 82.9183 83.3564 82.1882C83.8539 80.9681 83.8466 79.6275 83.3356 78.4131C82.8886 77.3505 82.1028 76.4959 81.0963 75.9656C80.9525 75.8899 80.8042 75.8207 80.6518 75.7586L59.3167 67.0592L69.2478 63.9853C71.6105 63.2539 72.9412 60.7339 72.2141 58.3682C71.9428 57.4851 71.4048 56.7404 70.71 56.196C69.6759 55.3859 68.2938 55.0201 66.9232 55.3079C66.9167 55.3094 66.9103 55.3105 66.9037 55.3122C66.8278 55.3292 59.2146 57.0411 51.2633 58.5915C50.9106 58.6604 50.5669 58.7267 50.2281 58.792C49.9569 58.8441 49.6896 58.8955 49.4273 58.9454C49.3519 58.9598 49.2763 58.974 49.2015 58.9883C48.7384 59.0762 48.2897 59.1604 47.8536 59.2414C47.6781 59.274 47.5041 59.3063 47.3329 59.3378C37.3472 61.1774 34.542 61.2104 33.7635 61.105C33.7605 61.1046 33.7579 61.1042 33.7549 61.1037C33.7431 61.102 33.7315 61.1003 33.7206 61.0986C33.7127 61.0973 33.7054 61.096 33.6981 61.0948C33.6928 61.0939 33.6872 61.093 33.6822 61.0922C33.6336 61.0834 33.5957 61.0742 33.5665 61.0654L33.3419 60.9739L33.6218 60.2875C33.897 59.6125 33.8929 58.8707 33.6103 58.1989C33.5397 58.0309 33.4536 57.8723 33.3539 57.7245C33.0546 57.2815 32.6314 56.9365 32.1252 56.73L24.7624 53.728C24.0876 53.4526 23.3457 53.4569 22.6739 53.7394C22.0019 54.022 21.4804 54.5494 21.2052 55.2242L12.202 77.3048C11.6339 78.6981 12.3053 80.2937 13.6986 80.862L21.0616 83.8642C21.3977 84.0013 21.7456 84.0662 22.0881 84.0662C23.1649 84.0662 24.1876 83.4246 24.6186 82.3676L24.6863 82.2017L26.3839 82.8937C26.3849 82.8941 26.3858 82.8947 26.3869 82.8951C28.0107 83.5571 29.5067 84.5017 30.8016 85.674C31.0371 85.8872 31.2659 86.1079 31.4877 86.3357C31.7095 86.5635 31.924 86.7986 32.1312 87.0405C32.2347 87.1614 32.3365 87.2842 32.436 87.4085C34.3228 89.7613 36.7963 91.6068 39.5888 92.7455L41.4986 93.5242H27.5089C26.5253 93.5242 25.7249 92.7238 25.7249 91.7402V88.2716C25.7249 87.5145 25.1112 86.9008 24.3541 86.9008C23.5969 86.9008 22.9832 87.5145 22.9832 88.2716V91.7402C22.9832 94.2356 25.0133 96.2658 27.5089 96.2658H48.2226L65.8815 103.466C66.4894 103.714 67.1182 103.832 67.7375 103.831C69.6836 103.831 71.532 102.672 72.311 100.761C72.6305 99.9778 72.7331 99.1588 72.647 98.3715C73.5656 98.5033 74.5179 98.3823 75.3811 98.0096C76.2585 97.6307 76.9856 97.0271 77.502 96.2657H103.474C105.97 96.2657 108 94.2356 108 91.74V28.8841C108 28.8822 108 28.8807 108 28.8789ZM59.675 19.7416H71.3079L73.1062 27.5133H57.8767L59.675 19.7416ZM55.0627 27.5133H26.3612L29.397 19.7416H56.8611L55.0627 27.5133ZM73.46 49.6084H73.4598L66.867 43.7678C66.4749 43.4206 65.9833 43.2469 65.4919 43.2469C65.0002 43.2469 64.5084 43.4206 64.1164 43.7678L57.5237 49.6084V30.2549H73.46V49.6084V49.6084ZM22.0847 81.3206L14.7454 78.3281L23.7391 56.2716L31.0784 59.2643L22.0847 81.3206ZM76.8506 89.5933L75.2773 88.9517C75.2765 88.9513 75.2758 88.9511 75.275 88.9507C75.2745 88.9505 75.2739 88.9502 75.2733 88.95C75.2731 88.95 75.273 88.9498 75.2728 88.9498L58.8879 82.269C58.1871 81.9832 57.387 82.3196 57.1011 83.0209C56.8151 83.7219 57.1517 84.522 57.8529 84.8079L74.2382 91.4889C74.3066 91.5169 74.3728 91.5478 74.4367 91.5817C74.4547 91.5913 74.4714 91.6029 74.489 91.6128C74.534 91.6383 74.5792 91.6638 74.6218 91.6922C74.6422 91.7058 74.661 91.7216 74.6808 91.7358C74.7185 91.7628 74.757 91.7895 74.7926 91.8187C74.8142 91.8364 74.8336 91.856 74.8545 91.8744C74.8863 91.9027 74.919 91.9301 74.949 91.9601C74.9698 91.9807 74.9883 92.0034 75.0082 92.0248C75.0358 92.0544 75.0641 92.0835 75.09 92.1146C75.1096 92.1384 75.1269 92.1637 75.1456 92.1883C75.1691 92.219 75.1935 92.2492 75.215 92.2811C75.2332 92.3077 75.2488 92.3358 75.2656 92.363C75.2851 92.3945 75.3058 92.4255 75.3236 92.4579C75.3397 92.4872 75.3532 92.5177 75.368 92.5475C75.3838 92.5796 75.4008 92.6111 75.4151 92.6439C75.4288 92.6754 75.4398 92.708 75.452 92.7401C75.4644 92.7725 75.4779 92.8044 75.4888 92.8374C75.4996 92.8706 75.5079 92.9045 75.5171 92.9381C75.5263 92.9713 75.5366 93.0039 75.5443 93.0375C75.552 93.0714 75.5568 93.1059 75.563 93.14C75.5692 93.1742 75.5763 93.2079 75.5808 93.2424C75.5853 93.2769 75.587 93.3118 75.5898 93.3465C75.5926 93.3813 75.5968 93.416 75.5979 93.4509C75.599 93.4852 75.5973 93.5199 75.597 93.5544C75.5966 93.59 75.5971 93.6257 75.5949 93.6615C75.5928 93.6954 75.5878 93.7293 75.584 93.7633C75.5801 93.7998 75.5771 93.8364 75.5711 93.8728C75.5656 93.9062 75.5572 93.9393 75.5503 93.9727C75.5424 94.0097 75.5358 94.0466 75.5259 94.0833C75.5173 94.1158 75.5056 94.148 75.4953 94.1803C75.4837 94.217 75.473 94.2538 75.4593 94.29C75.4477 94.3149 75.4363 94.34 75.4256 94.3653C75.4231 94.3712 75.4218 94.3772 75.4196 94.3828C75.2055 94.8772 74.8102 95.27 74.294 95.493C73.7259 95.738 73.0755 95.7467 72.5092 95.5157L69.6062 94.332C69.5927 94.3265 69.579 94.3228 69.5655 94.3177C69.5518 94.3115 69.5388 94.3044 69.525 94.2988L56.1982 88.8649C55.4968 88.5791 54.6971 88.9155 54.4114 89.6167C54.1254 90.3178 54.462 91.1178 55.1631 91.4038L68.4898 96.8377C68.504 96.8435 68.5185 96.8477 68.5329 96.8529C68.5458 96.8585 68.5578 96.8655 68.5712 96.8707C69.6896 97.3269 70.2287 98.6079 69.7727 99.7263C69.3165 100.845 68.036 101.384 66.917 100.928L49.0118 93.627C49.011 93.6266 49.0103 93.6262 49.0095 93.6258L40.6245 90.2068C39.1485 89.6049 37.7779 88.7696 36.568 87.7419C35.842 87.1252 35.1739 86.4395 34.5754 85.6933C33.9857 84.9581 33.3389 84.2724 32.6429 83.6422C31.1115 82.2561 29.3425 81.1391 27.4227 80.3561C27.4225 80.3561 27.4223 80.3559 27.4221 80.3559L25.7222 79.6629L29.1079 71.3595L32.3074 63.5128L32.5435 63.609C32.7657 63.6996 33.0825 63.8282 33.9353 63.8605C35.0007 63.9087 36.7632 63.7975 39.9206 63.3514C42.0685 63.048 44.703 62.6093 47.7786 62.0434C47.8543 62.0295 47.9295 62.0157 48.006 62.0016C48.1498 61.975 48.2951 61.948 48.441 61.921C48.5544 61.9 48.6684 61.8786 48.7834 61.857C48.9143 61.8325 49.0457 61.8079 49.1781 61.783C49.3185 61.7565 49.4606 61.7297 49.6035 61.7025C49.7179 61.6808 49.8321 61.6592 49.9476 61.6373C50.1218 61.6041 50.2989 61.5702 50.4767 61.536C50.5682 61.5184 50.6588 61.5012 50.751 61.4835C51.0233 61.431 51.2991 61.3778 51.5799 61.3232C59.5039 59.782 67.152 58.0665 67.4957 57.9893C67.53 57.9822 67.5643 57.978 67.5986 57.973C68.4791 57.8427 69.3418 58.3519 69.5943 59.1735C69.683 59.4623 69.6933 59.7569 69.6375 60.034C69.5147 60.6439 69.0714 61.1702 68.4379 61.3662L54.8475 65.5725C54.2942 65.7439 53.9083 66.244 53.8834 66.8226C53.8582 67.401 54.1991 67.933 54.7354 68.1516L79.6173 78.2974C80.1592 78.5182 80.5826 78.9369 80.8095 79.4764C81.0363 80.0158 81.0397 80.6113 80.8186 81.153C80.5976 81.6949 80.1791 82.1182 79.6396 82.3451C79.37 82.4584 79.0863 82.5157 78.8023 82.5174C78.7981 82.5174 78.794 82.5169 78.7899 82.5169C78.7231 82.5169 78.6566 82.5142 78.59 82.5081C78.5703 82.5062 78.5508 82.5021 78.5311 82.4998C78.4803 82.4936 78.4295 82.4878 78.3791 82.4781C78.3472 82.4719 78.3157 82.4625 78.284 82.455C78.2461 82.446 78.2081 82.4383 78.1706 82.4272C78.1318 82.4158 78.0937 82.4006 78.0555 82.3869C78.0251 82.3761 77.9941 82.3671 77.9641 82.3549L61.5774 75.6731C60.8764 75.3872 60.0765 75.7238 59.7905 76.425C59.5046 77.1261 59.8412 77.9261 60.5424 78.2121L80.4089 86.3126C80.5445 86.3677 80.6726 86.4354 80.792 86.5142C81.1503 86.7504 81.431 87.087 81.6011 87.4916C81.7996 87.9635 81.827 88.4784 81.6826 88.9627C81.662 89.0319 81.6378 89.1005 81.6103 89.1682C81.5818 89.2382 81.5501 89.3059 81.5154 89.3711C81.4346 89.523 81.3361 89.6602 81.2263 89.7853C81.158 89.8629 81.0851 89.9353 81.0075 90.0017C80.9951 90.0122 80.9838 90.0242 80.9713 90.0343C80.471 90.4434 79.8022 90.6193 79.1488 90.4873C79.0162 90.4605 78.8844 90.4224 78.7546 90.3695L76.8506 89.5933Z" fill="#FCC602"/>
</svg>
