<svg viewBox="0 0 40 40" fill="none">
    <path
        d="M20 40C31.0457 40 40 31.0457 40 20C40 8.9543 31.0457 0 20 0C8.9543 0 0 8.9543 0 20C0 31.0457 8.9543 40 20 40Z" />
    <path class="link-text"
        d="M20.0636 25.909C20.1045 24.9363 18.7454 24.4545 18.1591 25.209C16.8954 26.7363 14.5227 29.509 14.3841 29.8522C14.0227 30.8931 15.7182 31.5568 16.7932 31.959C17.9614 32.3984 18.7947 32.5757 19.2932 32.4909C19.4487 32.4699 19.5956 32.4073 19.7184 32.3097C19.8412 32.212 19.9354 32.083 19.9909 31.9363C20.075 31.6681 20.0659 26.1363 20.0636 25.909Z"
        fill="white" />
    <path class="link-text"
        d="M19.5023 8.16811C19.4614 8.0091 19.3752 7.86538 19.2541 7.75443C19.1331 7.64348 18.9824 7.57007 18.8205 7.54311C17.7477 7.27266 13.6545 8.40902 12.8932 9.2363C12.7775 9.34398 12.6925 9.48051 12.647 9.63188C12.6014 9.78325 12.597 9.94401 12.6341 10.0977L17.8273 18.4295C18.8886 20.1272 20.2273 19.6158 20.1341 17.7272C20.0659 16.4795 19.5682 8.58857 19.5045 8.18175L19.5023 8.16811Z"
        fill="white" />
    <path class="link-text"
        d="M17.3046 23.3706C18.2864 23.0683 18.2137 21.6296 17.3773 21.2933C15.15 20.3842 12.1068 19.091 11.8727 19.091C10.9637 19.0365 10.7841 20.341 10.6932 21.2751C10.6113 22.0462 10.6075 22.8237 10.6818 23.5956C10.75 24.3387 10.9091 25.0978 11.6546 25.1433C11.975 25.1433 17.2614 23.3865 17.3091 23.3706H17.3046Z"
        fill="white" />
    <path class="link-text"
        d="M28.8636 20.0522C28.9967 19.9526 29.1005 19.819 29.1641 19.6655C29.2277 19.5119 29.2487 19.344 29.225 19.1795C29.1136 18.1136 27.3182 15.4204 26.4205 14.984C26.2839 14.9045 26.1276 14.8651 25.9696 14.8703C25.8116 14.8756 25.6583 14.9252 25.5273 15.0136C25.1909 15.2408 22.1523 19.6431 21.9727 19.8249C21.3818 20.6249 22.2273 21.7749 23.1091 21.5409L23.0955 21.5727C23.4546 21.4522 28.5932 20.2272 28.8636 20.0522Z"
        fill="white" />
    <path class="link-text"
        d="M23.4591 23.7341C22.55 23.4068 21.675 24.5773 22.2091 25.3818C22.3614 25.6386 25.1341 30.2818 25.3909 30.4545C25.5104 30.5517 25.6552 30.6127 25.8082 30.6304C25.9611 30.6481 26.116 30.6218 26.2545 30.5545C27.1977 30.1773 29.2386 27.5591 29.3705 26.5364C29.4058 26.3814 29.3966 26.2195 29.3439 26.0695C29.2912 25.9195 29.1972 25.7875 29.0727 25.6886C28.8682 25.5045 23.4705 23.7341 23.4705 23.7341H23.4591Z"
        fill="white" />
</svg>