<svg width="56" height="56" viewBox="0 0 56 56" fill="none" xmlns="http://www.w3.org/2000/svg">
<g clip-path="url(#clip0_121_79)">
<path d="M32.567 19.1219H11.2018" stroke="#FCC602" stroke-width="2.1" stroke-miterlimit="10" stroke-linecap="round" stroke-linejoin="round"/>
<path d="M18.253 25.0406H11.2018" stroke="#FCC602" stroke-width="2.1" stroke-miterlimit="10" stroke-linecap="round" stroke-linejoin="round"/>
<path d="M32.567 25.0406H24.7137" stroke="#FCC602" stroke-width="2.1" stroke-miterlimit="10" stroke-linecap="round" stroke-linejoin="round"/>
<path d="M32.567 13.2032H11.2018" stroke="#FCC602" stroke-width="2.1" stroke-miterlimit="10" stroke-linecap="round" stroke-linejoin="round"/>
<path d="M32.567 30.9593H11.2018" stroke="#FCC602" stroke-width="2.1" stroke-miterlimit="10" stroke-linecap="round" stroke-linejoin="round"/>
<path d="M16.6488 36.878H11.2018" stroke="#FCC602" stroke-width="2.1" stroke-miterlimit="10" stroke-linecap="round" stroke-linejoin="round"/>
<path d="M28.019 36.878H21.4084" stroke="#FCC602" stroke-width="2.1" stroke-miterlimit="10" stroke-linecap="round" stroke-linejoin="round"/>
<path d="M20.5094 42.7967H11.2018" stroke="#FCC602" stroke-width="2.1" stroke-miterlimit="10" stroke-linecap="round" stroke-linejoin="round"/>
<path d="M41.7689 6.22764V2H2V54H41.7689V38.9918" stroke="#FCC602" stroke-width="2.2" stroke-miterlimit="10" stroke-linecap="round" stroke-linejoin="round"/>
<path d="M41.7689 25.0406V15.7398" stroke="#FCC602" stroke-width="2.1" stroke-miterlimit="10" stroke-linecap="round" stroke-linejoin="round"/>
<path d="M52.4119 20.4415L46.5496 17.0594L47.6837 15.0964C48.6184 13.4788 50.6884 12.9246 52.3072 13.8586C53.9259 14.7924 54.4806 16.8609 53.546 18.4785L52.4119 20.4415Z" stroke="#FCC602" stroke-width="2.1" stroke-miterlimit="10" stroke-linecap="round" stroke-linejoin="round"/>
<path d="M46.5496 17.0594L30.0111 45.684L29.1146 53.9999L35.8734 49.0661L52.4119 20.4415L46.5496 17.0594Z" stroke="#FCC602" stroke-width="2.1" stroke-miterlimit="10" stroke-linecap="round" stroke-linejoin="round"/>
<path d="M30.4463 45.935L35.4383 48.8151" stroke="#FCC602" stroke-width="2.1" stroke-miterlimit="10" stroke-linecap="round" stroke-linejoin="round"/>
</g>
<defs>
<clipPath id="clip0_121_79">
<rect width="56" height="56" fill="white"/>
</clipPath>
</defs>
</svg>
