<svg width="56" height="56" viewBox="0 0 56 56" fill="none" xmlns="http://www.w3.org/2000/svg">
<g clip-path="url(#clip0_130_325)">
<path d="M55.8517 35.7623L50.3053 26.238C50.1106 25.9022 49.7475 25.6944 49.3592 25.6944C49.1667 25.6944 48.9775 25.7458 48.8101 25.8431C48.2884 26.1461 48.1112 26.8177 48.4153 27.3383L53.4115 35.9177L23.4253 53.3892L18.2898 43.75H31.7192C32.0093 43.75 32.2875 43.6347 32.4926 43.4296L41.2424 34.6796C41.4474 34.4746 41.5625 34.1963 41.5625 33.9062V15.5717L43.4615 18.8322C43.6562 19.1669 44.0194 19.3758 44.4077 19.3758C44.6002 19.3758 44.7895 19.3244 44.9567 19.227C45.2094 19.0805 45.4084 18.8431 45.4838 18.5609C45.5582 18.2787 45.5 17.9845 45.3906 17.7319C45.3906 17.7319 45.3906 17.7319 45.3906 17.7308L41.5625 11.2255V1.09375C41.5625 0.489672 41.0732 0 40.4692 0H1.0942C0.490122 0 0.00012207 0.489672 0.00012207 1.09375V42.6562C0.00012207 43.2603 0.490231 43.75 1.09431 43.75H15.8119L22.0298 55.4203C22.1687 55.6817 22.4115 55.8775 22.6959 55.9584C22.7921 55.9858 22.8927 56 22.9934 56C23.1881 56 23.3784 55.9486 23.5457 55.8512L55.4581 37.2575C55.9786 36.9534 56.1547 36.283 55.8517 35.7623ZM32.8126 40.0157V35H37.8287L32.8126 40.0157ZM2.18762 2.1875H39.3751V32.8125H31.7193C31.1152 32.8125 30.6251 33.3022 30.6251 33.9062V41.5625H2.18762V2.1875Z" fill="#FCC602"/>
<path d="M9.84424 10.9375C10.4483 10.9375 10.938 10.4478 10.938 9.84375C10.938 9.23969 10.4483 8.75 9.84424 8.75C9.24018 8.75 8.75049 9.23969 8.75049 9.84375C8.75049 10.4478 9.24018 10.9375 9.84424 10.9375Z" fill="#FCC602"/>
<path d="M14.7661 10.9375H31.7192C32.3219 10.9375 32.813 10.4464 32.813 9.84375C32.813 9.24109 32.3219 8.75 31.7192 8.75H14.7661C14.1635 8.75 13.6724 9.24109 13.6724 9.84375C13.6724 10.4464 14.1635 10.9375 14.7661 10.9375Z" fill="#FCC602"/>
<path d="M14.7661 21.875H31.7192C32.3219 21.875 32.813 21.3839 32.813 20.7812C32.813 20.1786 32.3219 19.6875 31.7192 19.6875H14.7661C14.1635 19.6875 13.6724 20.1786 13.6724 20.7812C13.6724 21.3839 14.1635 21.875 14.7661 21.875Z" fill="#FCC602"/>
<path d="M9.84424 21.875C10.4483 21.875 10.938 21.3853 10.938 20.7812C10.938 20.1772 10.4483 19.6875 9.84424 19.6875C9.24018 19.6875 8.75049 20.1772 8.75049 20.7812C8.75049 21.3853 9.24018 21.875 9.84424 21.875Z" fill="#FCC602"/>
<path d="M27.3442 30.625H16.9536C16.3495 30.625 15.8599 31.1147 15.8599 31.7188C15.8599 32.3228 16.3495 32.8125 16.9536 32.8125H27.3442C27.9483 32.8125 28.438 32.3228 28.438 31.7188C28.438 31.1147 27.9483 30.625 27.3442 30.625Z" fill="#FCC602"/>
<path d="M13.4458 26.5704L10.0142 30.002L8.56671 27.8308C8.23169 27.3282 7.55269 27.1924 7.05001 27.5275C6.54743 27.8625 6.41158 28.5416 6.74671 29.0442L8.93421 32.3255C9.11599 32.5981 9.41043 32.7749 9.73647 32.8071C9.77246 32.8108 9.80844 32.8125 9.84432 32.8125C10.133 32.8125 10.4115 32.6983 10.6177 32.4921L14.9927 28.1171C15.4198 27.69 15.4198 26.9975 14.9927 26.5703C14.5655 26.1431 13.8729 26.1431 13.4458 26.5704Z" fill="#FCC602"/>
<path d="M46.8838 23.6283C47.4879 23.6283 47.9775 23.1386 47.9775 22.5345C47.9775 21.9305 47.4879 21.4408 46.8838 21.4408C46.2797 21.4408 45.79 21.9305 45.79 22.5345C45.79 23.1386 46.2797 23.6283 46.8838 23.6283Z" fill="#FCC602"/>
</g>
<defs>
<clipPath id="clip0_130_325">
<rect width="56" height="56" fill="white"/>
</clipPath>
</defs>
</svg>
