<svg width="56" height="56" viewBox="0 0 56 56" fill="none" xmlns="http://www.w3.org/2000/svg">
<g clip-path="url(#clip0_128_285)">
<path d="M31.7445 2.00001C44.0164 2.00001 54 11.9859 54 24.2603" stroke="#FCC602" stroke-width="2.4" stroke-miterlimit="10" stroke-linecap="round" stroke-linejoin="round"/>
<path d="M31.7445 8.35973C40.5096 8.35973 47.6416 15.4934 47.6416 24.2603" stroke="#FCC602" stroke-width="2.4" stroke-miterlimit="10" stroke-linecap="round" stroke-linejoin="round"/>
<path d="M31.7445 14.7207C37.0038 14.7207 41.2821 19 41.2821 24.2603" stroke="#FCC602" stroke-width="2.4" stroke-miterlimit="10" stroke-linecap="round" stroke-linejoin="round"/>
<path d="M31.7445 21.0804C33.5 21.0804 34.9237 22.5045 34.9237 24.2603" stroke="#FCC602" stroke-width="2.4" stroke-miterlimit="10" stroke-linecap="round" stroke-linejoin="round"/>
<path d="M19.6944 35.125C19.6151 35.125 19.5513 35.1892 19.5513 35.2678C19.5513 35.3465 19.615 35.4107 19.6944 35.4107C19.7737 35.4107 19.8375 35.3465 19.8375 35.2678C19.8375 35.1891 19.7737 35.125 19.6944 35.125Z" fill="#FCC602" stroke="#FCC602" stroke-width="2.4"/>
<path d="M16.606 31.6528C15.9355 30.7718 15.3001 29.8622 14.7017 28.9255C13.9155 27.6941 14.1533 26.0629 15.1858 25.03L18.7741 21.4409C19.5466 20.6693 19.5466 19.4166 18.7741 18.6447L10.3292 10.1982C9.55768 9.42531 8.30534 9.42531 7.53379 10.1982L5.3966 12.3357C1.92791 15.8043 0.990424 21.0984 3.16767 25.494C7.04127 33.3159 15.0125 45.3061 30.3695 52.8383C34.7779 54.9992 40.0953 54.0827 43.5662 50.611L45.7519 48.4247C46.5244 47.6531 46.5244 46.4004 45.7519 45.6275L37.307 37.182C36.5355 36.4091 35.2831 36.4091 34.5116 37.182L30.9234 40.771C29.8906 41.8037 28.2599 42.0416 27.0285 41.2552C25.6965 40.4037 24.4181 39.4769 23.1995 38.4802" stroke="#FCC602" stroke-width="2.4" stroke-miterlimit="10" stroke-linecap="round" stroke-linejoin="round"/>
</g>
<defs>
<clipPath id="clip0_128_285">
<rect width="56" height="56" fill="white"/>
</clipPath>
</defs>
</svg>
