<svg width="56" height="56" viewBox="0 0 56 56" fill="none" xmlns="http://www.w3.org/2000/svg">
<g clip-path="url(#clip0_251_733)">
<path d="M55.8516 35.7623L50.3052 26.238C50.1105 25.9022 49.7474 25.6944 49.3591 25.6944C49.1666 25.6944 48.9774 25.7458 48.81 25.8431C48.2883 26.1461 48.1111 26.8177 48.4152 27.3383L53.4114 35.9177L23.4252 53.3892L18.2897 43.75H31.7191C32.0091 43.75 32.2874 43.6347 32.4925 43.4296L41.2422 34.6796C41.4473 34.4746 41.5624 34.1963 41.5624 33.9062V15.5717L43.4614 18.8322C43.656 19.1669 44.0193 19.3758 44.4076 19.3758C44.6001 19.3758 44.7894 19.3244 44.9566 19.227C45.2093 19.0805 45.4082 18.8431 45.4837 18.5609C45.5581 18.2787 45.4999 17.9845 45.3905 17.7319C45.3905 17.7319 45.3905 17.7319 45.3905 17.7308L41.5624 11.2255V1.09375C41.5624 0.489672 41.073 0 40.4691 0H1.09408C0.49 0 0 0.489672 0 1.09375V42.6562C0 43.2603 0.490109 43.75 1.09419 43.75H15.8118L22.0297 55.4203C22.1686 55.6817 22.4114 55.8775 22.6957 55.9584C22.792 55.9858 22.8926 56 22.9932 56C23.1879 56 23.3782 55.9486 23.5456 55.8512L55.4579 37.2575C55.9785 36.9534 56.1545 36.283 55.8516 35.7623ZM32.8125 40.0157V35H37.8285L32.8125 40.0157ZM2.1875 2.1875H39.375V32.8125H31.7192C31.1151 32.8125 30.625 33.3022 30.625 33.9062V41.5625H2.1875V2.1875Z" fill="#FCC602"/>
<path d="M9.84375 10.9375C10.4478 10.9375 10.9375 10.4478 10.9375 9.84375C10.9375 9.23969 10.4478 8.75 9.84375 8.75C9.23969 8.75 8.75 9.23969 8.75 9.84375C8.75 10.4478 9.23969 10.9375 9.84375 10.9375Z" fill="#FCC602"/>
<path d="M14.7656 10.9375H31.7188C32.3214 10.9375 32.8125 10.4464 32.8125 9.84375C32.8125 9.24109 32.3214 8.75 31.7188 8.75H14.7656C14.163 8.75 13.6719 9.24109 13.6719 9.84375C13.6719 10.4464 14.163 10.9375 14.7656 10.9375Z" fill="#FCC602"/>
<path d="M14.7656 21.875H31.7188C32.3214 21.875 32.8125 21.3839 32.8125 20.7812C32.8125 20.1786 32.3214 19.6875 31.7188 19.6875H14.7656C14.163 19.6875 13.6719 20.1786 13.6719 20.7812C13.6719 21.3839 14.163 21.875 14.7656 21.875Z" fill="#FCC602"/>
<path d="M9.84375 21.875C10.4478 21.875 10.9375 21.3853 10.9375 20.7812C10.9375 20.1772 10.4478 19.6875 9.84375 19.6875C9.23969 19.6875 8.75 20.1772 8.75 20.7812C8.75 21.3853 9.23969 21.875 9.84375 21.875Z" fill="#FCC602"/>
<path d="M27.3438 30.625H16.9531C16.349 30.625 15.8594 31.1147 15.8594 31.7188C15.8594 32.3228 16.349 32.8125 16.9531 32.8125H27.3438C27.9478 32.8125 28.4375 32.3228 28.4375 31.7188C28.4375 31.1147 27.9478 30.625 27.3438 30.625Z" fill="#FCC602"/>
<path d="M13.4455 26.5703L10.0138 30.0019L8.56634 27.8307C8.23133 27.3282 7.55233 27.1923 7.04964 27.5274C6.54706 27.8625 6.41122 28.5416 6.74634 29.0441L8.93384 32.3254C9.11562 32.5981 9.41006 32.7748 9.73611 32.8071C9.77209 32.8107 9.80808 32.8124 9.84395 32.8124C10.1326 32.8124 10.4112 32.6983 10.6173 32.4921L14.9923 28.1171C15.4195 27.69 15.4195 26.9974 14.9923 26.5702C14.5651 26.1431 13.8726 26.1431 13.4455 26.5703Z" fill="#FCC602"/>
<path d="M46.8828 23.6283C47.4869 23.6283 47.9766 23.1386 47.9766 22.5345C47.9766 21.9305 47.4869 21.4408 46.8828 21.4408C46.2788 21.4408 45.7891 21.9305 45.7891 22.5345C45.7891 23.1386 46.2788 23.6283 46.8828 23.6283Z" fill="#FCC602"/>
</g>
<defs>
<clipPath id="clip0_251_733">
<rect width="56" height="56" fill="white"/>
</clipPath>
</defs>
</svg>
