<svg width="56" height="56" viewBox="0 0 56 56" fill="none" xmlns="http://www.w3.org/2000/svg">
<g clip-path="url(#clip0_251_830)">
<path d="M48.657 37.5203C40.324 45.8534 26.8134 45.8534 18.4803 37.5203C10.1472 29.1873 10.1472 15.6766 18.4803 7.34356C26.8134 -0.989499 40.324 -0.989499 48.657 7.34356C56.9901 15.6766 56.9901 29.1873 48.657 37.5203Z" stroke="#FCC602" stroke-width="2" stroke-miterlimit="10" stroke-linecap="round" stroke-linejoin="round"/>
<path d="M49.3184 27.4297C48.546 29.8778 47.1913 32.1802 45.2541 34.1173C42.1329 37.2386 37.9829 38.9575 33.5687 38.9575C29.1546 38.9575 25.0046 37.2386 21.8833 34.1173C15.4399 27.674 15.4399 17.1898 21.8833 10.7464C25.0046 7.62519 29.1546 5.90614 33.5687 5.90614C37.9829 5.90614 42.1329 7.62519 45.2541 10.7464C47.197 12.6893 48.5539 14.9995 49.3252 17.4554" stroke="#FCC602" stroke-width="2" stroke-miterlimit="10" stroke-linecap="round" stroke-linejoin="round"/>
<path d="M18.2095 37.7907L13.9277 42.0725" stroke="#FCC602" stroke-width="2" stroke-miterlimit="10" stroke-linecap="round" stroke-linejoin="round"/>
<path d="M2.08986 53.9101C0.761715 52.582 0.761715 50.4286 2.08986 49.1005L11.5226 39.6678L16.3322 44.4774L6.89951 53.9101C5.57137 55.2383 3.418 55.2383 2.08986 53.9101Z" stroke="#FCC602" stroke-width="2" stroke-miterlimit="10" stroke-linecap="round" stroke-linejoin="round"/>
<path d="M40.8347 17.5953C39.8456 16.6062 38.2418 16.6062 37.2526 17.5953L32.2394 22.6086L29.8824 20.2515C28.8933 19.2623 27.2896 19.2623 26.3005 20.2515C25.3113 21.2406 25.3113 22.8444 26.3005 23.8335L31.1132 28.6463C31.7352 29.2683 32.7437 29.2683 33.3657 28.6463L40.8347 21.1773C41.8238 20.1881 41.8238 18.5844 40.8347 17.5953Z" stroke="#FCC602" stroke-width="2" stroke-miterlimit="10" stroke-linecap="round" stroke-linejoin="round"/>
</g>
<defs>
<clipPath id="clip0_251_830">
<rect width="56" height="56" fill="white"/>
</clipPath>
</defs>
</svg>
