<svg width="120" height="120" viewBox="0 0 120 120" fill="none" xmlns="http://www.w3.org/2000/svg">
<path d="M59.9998 69.9374C58.0311 69.9374 56.1092 69.6562 54.2342 69.0468C51.7967 68.2499 49.5936 67.0312 47.6717 65.3906C45.8436 63.7968 44.3436 61.8749 43.1717 59.7187C42.0467 57.5156 41.3904 55.2187 41.1561 52.7812C40.9217 50.2499 41.2029 47.7656 41.9998 45.3281C42.7967 42.8906 44.0154 40.6874 45.6561 38.7656C47.2498 36.9374 49.1717 35.4374 51.3279 34.2656C53.5311 33.1406 55.8279 32.4843 58.2654 32.2499C60.7967 32.0156 63.2811 32.2968 65.7186 33.0937C66.5623 33.3749 67.0779 34.3124 66.7967 35.1562C66.5154 35.9999 65.578 36.5156 64.7342 36.2343C62.7186 35.5781 60.6561 35.3437 58.5936 35.5312C56.5779 35.7187 54.6561 36.2812 52.8279 37.2187C50.9998 38.1562 49.4529 39.4218 48.1404 40.9218C46.7811 42.5156 45.7498 44.3437 45.1404 46.3124C44.4842 48.3281 44.2498 50.3906 44.4373 52.4531C44.6248 54.4687 45.1873 56.3906 46.1248 58.2187C47.0623 60.0468 48.2811 61.5937 49.8279 62.9062C51.4217 64.2656 53.2498 65.2968 55.2186 65.9062C57.2342 66.5624 59.2967 66.7968 61.3592 66.6093C63.3748 66.4218 65.2967 65.8593 67.1248 64.9218C68.9529 63.9843 70.4998 62.7187 71.8123 61.2187C73.1717 59.6249 74.203 57.7968 74.8123 55.8281C75.4686 53.8124 75.703 51.7499 75.5155 49.6874C75.4217 48.7968 76.0779 47.9999 77.0154 47.9062C77.9061 47.8124 78.703 48.4687 78.7967 49.4062C79.0311 51.9374 78.7498 54.4218 77.9529 56.8593C77.1561 59.2968 75.9373 61.4999 74.2967 63.4218C72.7029 65.2499 70.7811 66.7968 68.6248 67.9218C66.4217 69.0468 64.078 69.7031 61.6873 69.9374C61.1248 69.8906 60.5623 69.9374 59.9998 69.9374Z" fill="#FCC602"/>
<path d="M60 90.6562C56.5781 90.6562 53.9063 87.9375 51.6094 85.5469C50.1094 84 48.6563 82.5 47.25 81.9375C45.75 81.3281 43.5 81.3281 41.3438 81.3281C37.9219 81.375 34.3594 81.375 32.0156 79.0781C29.6719 76.7344 29.7188 73.2188 29.7656 69.75C29.7656 67.5938 29.8125 65.3438 29.1563 63.8438C28.5938 62.4375 27.0938 60.9844 25.5469 59.4844C23.1563 57.1406 20.4375 54.5156 20.4375 51.0469C20.4375 47.625 23.1563 44.9531 25.5469 42.6563C27.0938 41.1563 28.5938 39.7031 29.1563 38.2969C29.7656 36.7969 29.7656 34.5469 29.7656 32.3906C29.7188 28.9688 29.7188 25.4063 32.0156 23.0625C34.3594 20.7188 37.875 20.7656 41.3438 20.8125C43.5 20.8125 45.75 20.8594 47.25 20.2031C48.6563 19.6406 50.1094 18.1406 51.6094 16.5938C53.9531 14.2031 56.5781 11.4844 60.0469 11.4844C63.4688 11.4844 66.1406 14.2031 68.4375 16.5938C69.9375 18.1406 71.3906 19.6406 72.7969 20.2031C74.2969 20.8125 76.5469 20.8125 78.7031 20.8125C82.125 20.7656 85.6875 20.7656 88.0313 23.0625C90.375 25.4063 90.3281 28.9219 90.2813 32.3906C90.2813 34.5469 90.2344 36.7969 90.8906 38.2969C91.4531 39.7031 92.9531 41.1563 94.5 42.6563C96.8906 45 99.6094 47.625 99.6094 51.0938C99.6094 54.5156 96.8906 57.1875 94.5 59.4844C92.9531 60.9844 91.4531 62.4375 90.8906 63.8438C90.2812 65.3438 90.2813 67.5938 90.2813 69.75C90.3281 73.1719 90.3281 76.7344 88.0313 79.0781C85.6875 81.4219 82.1719 81.375 78.7031 81.3281C76.5469 81.3281 74.2969 81.2813 72.7969 81.9375C71.3906 82.5 69.9375 84 68.4375 85.5469C66.0938 87.8906 63.4219 90.6562 60 90.6562ZM42.4688 78C44.5781 78 46.6875 78.0938 48.4688 78.8438C50.4844 79.6875 52.2656 81.4688 53.9063 83.2031C55.875 85.2188 57.9375 87.3281 59.9531 87.3281C62.0156 87.3281 64.0313 85.2188 66 83.2031C67.6875 81.4688 69.4219 79.6875 71.4375 78.8438C73.5469 77.9531 76.125 78 78.6094 78C81.5156 78.0469 84.2344 78.0469 85.5938 76.6875C86.9531 75.3281 86.9062 72.6094 86.9062 69.7031C86.9062 67.2188 86.8594 64.6406 87.75 62.5312C88.5938 60.5156 90.375 58.7344 92.1094 57.0938C94.125 55.125 96.2344 53.0625 96.2344 51.0469C96.2344 48.9844 94.125 46.9688 92.1094 45C90.375 43.3125 88.5938 41.5781 87.75 39.5625C86.8594 37.4531 86.9062 34.875 86.9062 32.3906C86.9531 29.4844 86.9531 26.7656 85.5938 25.4063C84.2344 24.0469 81.5156 24.0938 78.6094 24.0938C76.125 24.0938 73.5469 24.1406 71.4375 23.25C69.4219 22.4062 67.6406 20.625 66 18.8906C64.0313 16.875 62.0156 14.7656 59.9531 14.7656C57.8906 14.7656 55.875 16.875 53.9063 18.8906C52.2188 20.625 50.4844 22.4062 48.4688 23.25C46.3594 24.1406 43.7813 24.0938 41.2969 24.0938C38.3906 24.0469 35.6719 24.0469 34.3125 25.4063C32.9531 26.7656 33 29.4844 33 32.3906C33 34.875 33.0469 37.4531 32.1563 39.5625C31.3125 41.5781 29.5313 43.3594 27.7969 45C25.7813 46.9688 23.6719 48.9844 23.6719 51.0469C23.6719 53.1094 25.7813 55.125 27.7969 57.0938C29.5313 58.7813 31.3125 60.5156 32.1563 62.5312C33.0469 64.6406 33 67.2188 33 69.7031C32.9531 72.6094 32.9531 75.3281 34.3125 76.6875C35.6719 78.0469 38.3906 78 41.2969 78H42.4688Z" fill="#FCC602"/>
<path d="M77.3438 108.516C77.0156 108.516 76.6406 108.422 76.3594 108.281L60.2344 99.75L44.1094 108.281C43.4531 108.609 42.6562 108.609 42.0469 108.234C41.3906 107.859 41.0156 107.156 41.0156 106.406V88.2187C41.0156 87.3281 41.7656 86.5781 42.6562 86.5781C43.5469 86.5781 44.2969 87.3281 44.2969 88.2187V104.438L60.2344 96L76.1719 104.438V88.2187C76.1719 87.3281 76.9219 86.5781 77.8125 86.5781C78.7031 86.5781 79.4531 87.3281 79.4531 88.2187V106.406C79.4531 107.156 79.0781 107.812 78.4219 108.234C78.0938 108.422 77.7188 108.516 77.3438 108.516Z" fill="#FCC602"/>
<path d="M59.6719 57.5625L49.8281 47.7188C49.1719 47.0625 49.1719 46.0313 49.8281 45.4219C50.4844 44.7656 51.5156 44.7656 52.125 45.4219L59.625 52.9219L77.4375 35.1562C78.0937 34.5 79.125 34.5 79.7812 35.1562C80.4375 35.8125 80.4375 36.8438 79.7812 37.4531L59.6719 57.5625Z" fill="#FCC602"/>
</svg>
