<svg width="112" height="120" viewBox="0 0 112 120" fill="none" xmlns="http://www.w3.org/2000/svg">
<path d="M26.4181 87.9354C24.0195 85.5104 24.0195 81.5787 26.4181 79.1537L35.4397 70.0331C37.8384 67.6079 41.7273 67.6079 44.126 70.0331C46.5248 72.4581 46.5248 76.3898 44.126 78.8147L35.1044 87.9354C32.7058 90.3604 28.8168 90.3604 26.4181 87.9354Z" stroke="#FCC602" stroke-width="3.2" stroke-miterlimit="10" stroke-linecap="round" stroke-linejoin="round"/>
<path d="M66.5323 93.3999L63.4004 90.2336" stroke="#FCC602" stroke-width="3.2" stroke-miterlimit="10" stroke-linecap="round" stroke-linejoin="round"/>
<path d="M76.8584 86.2764L64.8066 74.0922" stroke="#FCC602" stroke-width="3.2" stroke-miterlimit="10" stroke-linecap="round" stroke-linejoin="round"/>
<path d="M85.5451 77.4946L73.1602 64.9737" stroke="#FCC602" stroke-width="3.2" stroke-miterlimit="10" stroke-linecap="round" stroke-linejoin="round"/>
<path d="M56.8008 101.127L57.8438 102.181C60.2424 104.606 64.1314 104.606 66.5303 102.181C68.9289 99.7563 68.9289 95.8246 66.5303 93.3996L68.1711 95.0584C70.5697 97.4834 74.4587 97.4834 76.8573 95.0584C79.2562 92.6334 79.2562 88.7015 76.8573 86.2765L78.4983 87.9356C80.897 90.3605 84.786 90.3605 87.1846 87.9356C89.5833 85.5104 89.5833 81.5787 87.1846 79.1537L85.544 77.4951C87.9427 79.9199 91.8314 79.9197 94.2301 77.4949V77.4947C96.6287 75.0697 96.6287 71.138 94.2301 68.713L90.5704 65.0132" stroke="#FCC602" stroke-width="3.2" stroke-miterlimit="10" stroke-linecap="round" stroke-linejoin="round"/>
<path d="M28.0596 77.4946C25.661 79.9198 21.772 79.9198 19.3734 77.4946C16.9745 75.0696 16.9745 71.1379 19.3734 68.7129L26.7539 61.2511C29.1526 58.8261 33.0416 58.8261 35.4402 61.2511C37.8391 63.6761 37.8391 67.608 35.4402 70.0329" stroke="#FCC602" stroke-width="3.2" stroke-miterlimit="10" stroke-linecap="round" stroke-linejoin="round"/>
<path d="M44.127 78.8143C46.5256 76.3893 50.4146 76.3893 52.8133 78.8143H52.8135C55.2121 81.2394 55.2121 85.1711 52.8135 87.5961L45.4327 95.058C43.034 97.483 39.1451 97.483 36.7464 95.058V95.0578C34.3476 92.6328 34.3476 88.7011 36.7464 86.2761" stroke="#FCC602" stroke-width="3.2" stroke-miterlimit="10" stroke-linecap="round" stroke-linejoin="round"/>
<path d="M52.8124 87.5966C55.2111 85.1716 59.1 85.1716 61.4987 87.5966C63.8973 90.0216 63.8973 93.9532 61.4987 96.3782L55.7589 102.181C53.3603 104.606 49.4711 104.606 47.0724 102.181C44.6738 99.7561 44.6738 95.8244 47.0724 93.3994" stroke="#FCC602" stroke-width="3.2" stroke-miterlimit="10" stroke-linecap="round" stroke-linejoin="round"/>
<path d="M18.3086 62.1808L22.0711 65.9846" stroke="#FCC602" stroke-width="3.2" stroke-miterlimit="10" stroke-linecap="round" stroke-linejoin="round"/>
<path d="M55.8911 29.8889L55.8399 29.837L55.7888 29.8889L49.2398 23.268C39.6548 13.5775 24.1141 13.5775 14.5289 23.268H14.5287C5.18876 32.7107 4.94987 47.8698 13.8118 57.6049" stroke="#FCC602" stroke-width="3.2" stroke-miterlimit="10" stroke-linecap="round" stroke-linejoin="round"/>
<path d="M94.2231 20.7332C84.6246 13.6672 71.1026 14.5121 62.4422 23.2675L55.8933 29.8884L55.8421 29.8365L55.791 29.8884" stroke="#FCC602" stroke-width="3.2" stroke-miterlimit="10" stroke-linecap="round" stroke-linejoin="round"/>
<path d="M84.1797 58.7719L90.5711 65.0129L97.1517 58.3601C106.132 49.2813 106.699 34.9182 98.8526 25.1722" stroke="#FCC602" stroke-width="3.2" stroke-miterlimit="10" stroke-linecap="round" stroke-linejoin="round"/>
<path d="M55.375 30.3431L42.5723 43.2863C41.429 44.4422 41.429 46.3163 42.5723 47.4721C46.2263 51.1663 52.1507 51.1663 55.8049 47.4721L64.0614 39.1247L79.5924 54.2905" stroke="#FCC602" stroke-width="3.2" stroke-miterlimit="10" stroke-linecap="round" stroke-linejoin="round"/>
</svg>
