<svg width="22" height="38" viewBox="0 0 22 38" fill="none" xmlns="http://www.w3.org/2000/svg">
<g clip-path="url(#clip0_815_3)">
<path d="M8.30363 26.7727V26.5597C8.3273 24.2988 8.56404 22.4995 9.01385 21.1619C9.46367 19.8243 10.1028 18.7412 10.9314 17.9126C11.76 17.084 12.7543 16.3205 13.9144 15.6222C14.6128 15.196 15.2401 14.6929 15.7965 14.1129C16.3528 13.5211 16.7908 12.8404 17.1104 12.071C17.4418 11.3016 17.6076 10.4493 17.6076 9.51422C17.6076 8.35419 17.3353 7.34803 16.7908 6.49576C16.2463 5.64348 15.5183 4.98652 14.6068 4.52488C13.6954 4.06323 12.6833 3.8324 11.5706 3.8324C10.6 3.8324 9.6649 4.03364 8.76527 4.4361C7.86565 4.83856 7.114 5.47185 6.5103 6.33596C5.90661 7.20007 5.55742 8.33051 5.46272 9.72729H0.988281C1.08298 7.71498 1.60382 5.99268 2.55079 4.56039C3.50959 3.1281 4.77025 2.03316 6.33275 1.27559C7.90708 0.518009 9.65306 0.139221 11.5706 0.139221C13.654 0.139221 15.465 0.55352 17.0039 1.38212C18.5545 2.21072 19.7501 3.34708 20.5905 4.79121C21.4428 6.23534 21.8689 7.8807 21.8689 9.72729C21.8689 11.0294 21.6677 12.2071 21.2652 13.2607C20.8746 14.3142 20.3064 15.2552 19.5607 16.0838C18.8268 16.9124 17.939 17.6463 16.8973 18.2855C15.8557 18.9366 15.0211 19.6231 14.3938 20.3452C13.7664 21.0554 13.3107 21.9018 13.0266 22.8842C12.7425 23.8667 12.5886 25.0919 12.5649 26.5597V26.7727H8.30363ZM10.5763 37.2841C9.70041 37.2841 8.94874 36.9704 8.32137 36.343C7.69401 35.7157 7.38033 34.964 7.38033 34.0881C7.38033 33.2121 7.69401 32.4605 8.32137 31.8331C8.94874 31.2057 9.70041 30.892 10.5763 30.892C11.4523 30.892 12.2039 31.2057 12.8313 31.8331C13.4586 32.4605 13.7723 33.2121 13.7723 34.0881C13.7723 34.6681 13.6244 35.2008 13.3284 35.6861C13.0443 36.1714 12.6596 36.562 12.1743 36.858C11.7008 37.142 11.1682 37.2841 10.5763 37.2841Z" fill="#F0F6FC"/>
</g>
<defs>
<clipPath id="clip0_815_3">
<rect width="22" height="38" fill="white"/>
</clipPath>
</defs>
</svg>
