<svg width="48" height="48" viewBox="0 0 48 48" fill="none" xmlns="http://www.w3.org/2000/svg">
<path d="M42.4897 20.5226L26.1741 20.5218C25.4536 20.5218 24.8696 21.1057 24.8696 21.8262V27.0383C24.8696 27.7586 25.4536 28.3426 26.174 28.3426H35.362C34.3559 30.9537 32.4781 33.1403 30.0823 34.5297L34 41.3116C40.2845 37.677 44 31.2998 44 24.1609C44 23.1444 43.9251 22.4177 43.7753 21.5995C43.6613 20.9779 43.1217 20.5226 42.4897 20.5226Z" fill="#167EE6"/>
<path d="M24 36.1739C19.5036 36.1739 15.5783 33.7172 13.4701 30.0818L6.68835 33.9907C10.1395 39.9721 16.6047 44 24 44C27.6279 44 31.0511 43.0232 34 41.3209V41.3116L30.0823 34.5296C28.2902 35.569 26.2165 36.1739 24 36.1739Z" fill="#12B347"/>
<path d="M34 41.3209V41.3116L30.0823 34.5296C28.2902 35.5689 26.2166 36.1739 24 36.1739V44C27.6279 44 31.0512 43.0232 34 41.3209Z" fill="#0F993E"/>
<path d="M11.8261 24C11.8261 21.7837 12.4309 19.7101 13.4701 17.9182L6.68836 14.0093C4.97672 16.9489 4 20.3628 4 24C4 27.6372 4.97672 31.0511 6.68836 33.9907L13.4701 30.0818C12.4309 28.2898 11.8261 26.2163 11.8261 24Z" fill="#FFD500"/>
<path d="M24 11.8261C26.9321 11.8261 29.6254 12.868 31.7291 14.601C32.248 15.0285 33.0023 14.9977 33.4777 14.5223L37.1707 10.8293C37.7101 10.2899 37.6716 9.40703 37.0955 8.90719C33.5709 5.84945 28.9849 4 24 4C16.6047 4 10.1395 8.02789 6.68835 14.0093L13.4701 17.9182C15.5783 14.2828 19.5036 11.8261 24 11.8261Z" fill="#FF4B26"/>
<path d="M31.7291 14.601C32.248 15.0285 33.0024 14.9977 33.4777 14.5223L37.1707 10.8293C37.71 10.2899 37.6716 9.40703 37.0955 8.90719C33.5709 5.84938 28.9849 4 24 4V11.8261C26.932 11.8261 29.6254 12.868 31.7291 14.601Z" fill="#D93F21"/>
</svg>
