<svg width="48" height="48" viewBox="0 0 48 48" fill="none" xmlns="http://www.w3.org/2000/svg">
<g clip-path="url(#clip0_458_2145)">
<path d="M24 48C37.2548 48 48 37.2548 48 24C48 10.7452 37.2548 0 24 0C10.7452 0 0 10.7452 0 24C0 37.2548 10.7452 48 24 48Z" fill="#BB0000"/>
<path d="M24.0764 31.0909C24.1255 29.9236 22.4946 29.3455 21.7909 30.2509C20.2746 32.0836 17.4273 35.4109 17.2609 35.8227C16.8273 37.0718 18.8618 37.8682 20.1518 38.3509C21.5536 38.8782 22.5536 39.0909 23.1518 38.9891C23.3384 38.9639 23.5147 38.8888 23.6621 38.7717C23.8095 38.6545 23.9225 38.4997 23.9891 38.3236C24.09 38.0018 24.0791 31.3636 24.0764 31.0909Z" fill="white"/>
<path d="M23.4027 9.80182C23.3536 9.611 23.2502 9.43854 23.1049 9.3054C22.9597 9.17226 22.7789 9.08417 22.5845 9.05182C21.2973 8.72727 16.3855 10.0909 15.4718 11.0836C15.333 11.2129 15.231 11.3767 15.1763 11.5583C15.1217 11.74 15.1164 11.9329 15.1609 12.1173L21.3927 22.1155C22.6664 24.1527 24.2727 23.5391 24.1609 21.2727C24.0791 19.7755 23.4818 10.3064 23.4055 9.81818L23.4027 9.80182Z" fill="white"/>
<path d="M20.7655 28.0445C21.9436 27.6818 21.8564 25.9555 20.8527 25.5518C18.18 24.4609 14.5282 22.9091 14.2473 22.9091C13.1564 22.8436 12.9409 24.4091 12.8318 25.53C12.7336 26.4554 12.729 27.3883 12.8182 28.3145C12.9 29.2064 13.0909 30.1173 13.9855 30.1718C14.37 30.1718 20.7136 28.0636 20.7709 28.0445H20.7655Z" fill="white"/>
<path d="M34.6364 24.0627C34.7961 23.9432 34.9206 23.7829 34.9969 23.5986C35.0732 23.4143 35.0985 23.2129 35.07 23.0155C34.9364 21.7364 32.7818 18.5045 31.7045 17.9809C31.5406 17.8855 31.3531 17.8382 31.1635 17.8445C30.974 17.8507 30.79 17.9103 30.6327 18.0164C30.2291 18.2891 26.5827 23.5718 26.3673 23.79C25.6582 24.75 26.6727 26.13 27.7309 25.8491L27.7145 25.8873C28.1455 25.7427 34.3118 24.2727 34.6364 24.0627Z" fill="white"/>
<path d="M28.1509 28.4809C27.06 28.0882 26.01 29.4927 26.6509 30.4582C26.8336 30.7664 30.1609 36.3382 30.4691 36.5455C30.6125 36.662 30.7862 36.7352 30.9698 36.7565C31.1534 36.7777 31.3392 36.7462 31.5054 36.6655C32.6373 36.2127 35.0864 33.0709 35.2445 31.8436C35.2869 31.6576 35.2759 31.4634 35.2127 31.2834C35.1495 31.1035 35.0367 30.945 34.8873 30.8264C34.6418 30.6055 28.1645 28.4809 28.1645 28.4809H28.1509Z" fill="white"/>
</g>
<defs>
<clipPath id="clip0_458_2145">
<rect width="48" height="48" fill="white"/>
</clipPath>
</defs>
</svg>
